<svg xmlns="http://www.w3.org/2000/svg" width="1972" height="2004" fill="none" viewBox="0 0 1972 2004"><path fill="#25986a" fill-rule="evenodd" d="M794.43 781.308c12.082-11.646 37.589-37.895 42.959-49.72 6.712-14.782 56.382-146.475 55.04-154.538-.276-1.659-.439-3.602-.616-5.725-.685-8.193-1.594-19.055-10.124-26.526-1.626-1.425-3.53-2.819-5.539-4.289-11.251-8.238-25.785-18.88-13.255-50.807 9.393-23.932 29.105-28.837 47.39-33.386 10.463-2.604 20.459-5.09 27.787-10.959 20.137-16.126 76.518-154.537 73.838-167.975-1.51-7.555-4.29-10.863-6.92-13.982-2.04-2.429-3.99-4.745-5.165-8.863-1.198-4.198.275-8.663 1.805-13.276 1.89-5.725 3.85-11.678.88-17.632-5.37-10.75-24.164-38.97-37.589-40.314-7.848-.785-10.19 2.563-11.855 4.943-1.183 1.691-2.024 2.893-4.254 1.776-2.649-1.325-5.625-8.538-8.766-16.152-3.226-7.82-6.627-16.063-10.028-18.786-3.712-2.973-8.246-1.014-13.146 1.104-3.961 1.712-8.161 3.528-12.361 2.927-4.992-.714-6.574-7.116-8.169-13.566-1.406-5.692-2.822-11.421-6.598-13.31-3.426-1.715-8.796 4.108-15.489 11.367-9.041 9.804-20.497 22.228-32.839 22.228-15.339 0-24.516-19.19-30.466-31.629-2.381-4.979-4.245-8.877-5.78-10.03-3.195-2.398-8.289-1.467-13.023-.602-3.224.588-6.281 1.147-8.457.602-2.394-.599-2.92-2.268-3.482-4.052-.698-2.216-1.452-4.61-5.915-5.355-4.382-.731-7.572 2.118-10.651 4.868-2.581 2.304-5.083 4.539-8.143 4.539-2.36 0-4.222-2.991-6.637-6.869C744.409 110.168 738.077 100 723.28 100c-14.088 0-17.433 7.169-20.141 12.973-1.678 3.597-3.112 6.67-6.708 7.184-4.109.588-9.758-2.679-16.049-6.316-8.096-4.682-17.257-9.978-25.567-8.466-8.318 1.514-11.95 8.997-15.216 15.725-2.532 5.216-4.844 9.978-8.948 11.151-3.605 1.031-7.408-1.102-11.712-3.517-6.914-3.879-15.12-8.484-25.877-1.858-10.407 6.411-9.356 21.903-8.521 34.22.566 8.336 1.033 15.217-2.218 16.844-4.409 2.207-7.209-.821-10.162-4.014-2.441-2.639-4.987-5.392-8.632-5.392-4.225 0-4.387 7.392-4.555 15.004-.152 6.902-.308 13.986-3.5 15.903-3.153 1.894-9.859-1.252-16.92-4.565-7.973-3.74-16.397-7.692-20.669-4.841-4.724 3.152-4.83 9.079-4.923 14.254-.065 3.648-.124 6.923-1.789 8.59-1.758 1.76-6.074.191-10.937-1.577-6.279-2.282-13.472-4.896-17.255-1.11-2.718 2.721-2.133 7.647-1.456 13.35.994 8.375 2.187 18.424-6.598 25.62-6.423 5.26-14.624 7.47-22.172 9.504-9.806 2.642-18.511 4.988-20.787 13.341-2.366 8.684 1.755 13.658 5.285 17.918 2.479 2.992 4.666 5.632 4.112 8.958-.608 3.652-3.421 7.029-6.317 10.505-3.496 4.196-7.113 8.538-7.113 13.683 0 4.089 2.536 7.162 4.963 10.102 3.156 3.825 6.127 7.425 3.092 12.743-2.779 4.867-11.666 4.338-20.527 3.81-8.266-.492-16.508-.982-19.747 2.909-3.771 4.53-3.305 8.636-2.886 12.318.326 2.871.623 5.484-1.141 7.839-1.562 2.084-5.747 3.36-10.365 4.768-7.292 2.223-15.662 4.775-16.484 11.357-.714 5.714 3.882 10.289 7.941 14.33 3.579 3.563 6.741 6.711 5.483 9.859-.98 2.451-4.46 2.935-8.813 3.54-7.575 1.052-17.79 2.471-22.053 15.273-4.119 12.368.354 17.147 4.117 21.167 2.369 2.531 4.456 4.762 3.938 8.397-.707 4.949-6.617 9.898-12.061 14.455-4.902 4.105-9.426 7.893-9.426 11.077 0 3.295 2.26 4.651 4.721 6.128 2.559 1.535 5.335 3.201 6.019 7.31 1.342 8.063 2.685 16.126 5.37 18.813 1.212 1.214 4.068 1.057 7.083.892 3.66-.201 7.554-.415 9.026 1.796 2.685 4.031 8.055 17.469-2.685 29.563-5.662 6.377-17.296 1.547-28.407-3.067-9.963-4.136-19.506-8.099-23.948-3.652-5.314 5.32-2.901 12.358.685 22.816 2.755 8.036 6.203 18.091 7.369 30.936 1.545 17.01-5.801 18.45-12.063 19.677-4.621.906-8.652 1.696-8.082 8.543.686 8.244 8.743 11.22 16.634 14.134 7.545 2.787 14.938 5.517 15.594 12.742.575 6.334-3.78 11.928-8.628 18.156-6.466 8.307-13.811 17.741-11.509 31.565 2.506 15.052 7.611 15.534 12.728 16.017 3.106.293 6.216.587 8.751 4.14 3.373 4.726 1.662 8.774-.195 13.166-1.838 4.349-3.819 9.036-1.147 15.054 2.665 6.003 8.308 6.709 13.643 7.376 5.414.677 10.511 1.315 11.863 7.406 1.263 5.689-2.524 8.999-6.47 12.449-4.443 3.883-9.087 7.942-6.954 15.77 2.415 8.865 6.762 7.581 10.144 6.581 2.257-.667 4.085-1.207 4.623 1.482.417 2.088-1.629 5.733-4.164 10.249-5.622 10.019-13.652 24.326-2.548 35.44 10.124 10.135 20.248 11.777 27.374 12.933 4.212.683 7.375 1.196 8.872 3.193 1.699 2.268.292 6.926-1.197 11.858-2.041 6.759-4.236 14.031 1.197 16.362 4.407 1.891 18.558-3.608 33.176-9.288 16.55-6.43 33.697-13.093 37.974-9.525 4.215 3.516 2.915 12.185 1.68 20.42-1.124 7.502-2.195 14.644 1.005 17.206 3.362 2.693 17.169-2.708 31.8-8.432 14.574-5.701 29.965-11.722 36.665-10.381 7.2 1.442 8.994 7.136 10.559 12.106 1.353 4.296 2.536 8.051 6.892 8.051 5.183 0 9.549-6.949 13.324-12.956 3.069-4.885 5.747-9.148 8.156-8.545 2.044.512 3.7 2.192 5.41 3.929 2.783 2.825 5.711 5.798 10.699 4.134 4.432-1.479 8.457-8.246 12.3-14.706 3.141-5.281 6.16-10.357 9.179-12.17 1.807-1.085 10.126-3.824 21.322-7.51 30.411-10.013 82.047-27.014 82.047-36.836 0-13.438-89.944-104.816-97.999-108.847-8.055-4.032-30.876-29.564-24.164-36.283 3.936-3.94 13.873 5.52 22.232 13.478 5.895 5.613 11.006 10.478 12.672 9.367 1.629-1.088-1.135-8.549-4.382-17.318-4.781-12.912-10.612-28.658-5.015-31.059 7.907-3.393 24.37 33.179 31.79 49.663l.001.003c1.398 3.104 2.474 5.496 3.112 6.773 4.028 8.063 80.547 98.098 85.917 96.754s4.317-55.096 0-71.221c-4.316-16.126-36.246-77.926-71.15-98.098-6.31-3.647-12.743-7.205-19.001-10.667l-.002-.001c-28.353-15.685-53.126-29.389-46.777-40.396 4.823-8.362 57.188 32.711 97.028 63.96 24.183 18.968 43.751 34.316 45.272 32.793 4.027-4.031-11.433-92.721-16.109-110.191s-49.671-98.098-55.041-103.473c-1.572-1.574-8.094-3.724-16.364-6.45-19.971-6.584-50.135-16.528-45.389-29.833 4.006-11.228 16.141-1.396 26.416 6.929 6.942 5.625 13.035 10.562 15.2 7.853 2.483-3.107-4.794-15.697-12.406-28.867-8.85-15.309-18.152-31.402-13.1-34.292 4.952-2.832 29.667 30.912 53.51 63.467 21.398 29.217 42.094 57.475 47.174 57.475 8.043 0 25.877-64.83 35.452-99.635 3.209-11.665 5.49-19.957 6.164-21.307 2.684-5.375 16.109-5.375 17.451 0 .63 2.519-7.292 32.487-15.888 65.005-9.745 36.869-20.358 77.017-20.358 84.157 0 13.438 20.137 103.473 25.507 103.473 1.78 0 6.363-14.177 12.38-32.79 12.133-37.531 30.096-93.097 42.66-86.808 13.559 6.786-15.503 89.809-32.747 139.068-6.658 19.02-11.554 33.006-11.554 35.626 0 9.406 2.691 84.66 12.085 84.66" clip-rule="evenodd"/><path fill="#ffebec" d="M611.854 719.493c8.055 4.031 97.999 95.409 97.999 108.847l6.018 38.66s41.286-.627 59.629-9.5c16.677-8.067 38.129-34.5 38.129-34.5l-19.199-41.692c-9.394 0-12.085-75.254-12.085-84.66 0-2.62 4.896-16.606 11.554-35.626 17.244-49.259 46.306-132.282 32.747-139.068-12.564-6.289-30.527 49.277-42.66 86.808-6.017 18.613-10.6 32.79-12.38 32.79-5.37 0-25.507-90.035-25.507-103.473 0-7.14 10.613-47.288 20.358-84.157 8.596-32.518 16.518-62.486 15.888-65.005-1.342-5.375-14.767-5.375-17.451 0-.674 1.35-2.955 9.642-6.164 21.307-9.575 34.805-27.409 99.635-35.452 99.635-5.08 0-25.776-28.258-47.174-57.475-23.843-32.555-48.558-66.299-53.51-63.467-5.052 2.89 4.25 18.983 13.1 34.292 7.612 13.17 14.889 25.76 12.406 28.867-2.165 2.709-8.258-2.228-15.2-7.853-10.275-8.325-22.41-18.157-26.416-6.929-4.746 13.305 25.418 23.249 45.389 29.833 8.27 2.726 14.792 4.876 16.364 6.45 5.37 5.375 50.364 86.003 55.041 103.473s20.136 106.16 16.109 110.191c-1.521 1.523-21.089-13.825-45.272-32.793-39.84-31.249-92.205-72.322-97.028-63.96-6.349 11.007 18.424 24.711 46.777 40.396l.002.001c6.258 3.462 12.691 7.02 19.001 10.667 34.904 20.172 66.834 81.972 71.15 98.098 4.317 16.125 5.37 69.877 0 71.221s-81.889-88.691-85.917-96.754c-.638-1.277-1.714-3.669-3.112-6.773l-.001-.003c-7.42-16.484-23.883-53.056-31.79-49.663-5.597 2.401.234 18.147 5.015 31.059 3.247 8.769 6.011 16.23 4.382 17.318-1.666 1.111-6.777-3.754-12.672-9.367-8.359-7.958-18.296-17.418-22.232-13.478-6.712 6.719 16.109 32.251 24.164 36.283"/><path fill="#313c72" fill-rule="evenodd" d="M1033.6 236.03c-1.57-33.757 1.18-51.334 9.04-58.724 4.13-3.995 5.5-6.792 4.72-9.788-.79-2.397 0-4.993 1.57-5.992 9.04-5.793 19.25 0 33.4 19.175 5.5 7.79 14.34 18.576 19.25 24.169 5.7 6.192 10.22 13.982 12.18 19.974 2.16 7.391 4.72 10.986 10.61 14.981 8.25 5.792 10.41 9.588 10.61 18.975.2 3.995 2.16 7.99 5.89 11.585 4.72 4.594 8.26 5.793 26.33 8.19 11.99 1.598 27.9 2.397 38.12 1.598 14.93-.799 21.61-.001 50.09 6.191 42.05 9.388 53.05 12.784 78.98 25.168 11.6 5.593 29.87 13.583 40.48 17.778 24.16 9.587 31.82 14.98 96.07 66.913 12.38 10.187 42.83 45.541 65.42 76.102 6.49 8.789 21.61 33.157 33.79 54.33 21.62 37.152 22.6 39.748 37.14 83.891 17.48 53.331 21.02 66.914 27.9 108.26 6.87 41.347 7.85 56.727 5.1 85.09-1.18 13.183-2.94 37.352-4.12 53.931-1.38 22.77-3.54 36.952-8.84 58.923-13.56 55.329-17.1 74.904-18.67 100.87-1.18 22.37-2.36 28.16-7.46 41.15-3.54 8.39-6.68 19.97-7.47 25.96-1.96 17.58 2.36 69.11 6.88 80.7 5.1 13.58 7.86 29.36 5.89 34.55-1.6 4.41-6.78 5.37-12.77 3.74-2.29-.62-4.7-1.62-7.08-2.95-4.36-2.45-8.61-6-11.78-10.37-8.06-11.39-55.21-138.02-63.26-170.78-3.34-13.58-9.63-57.129-13.95-96.877-2.75-26.166-5.5-39.349-15.52-73.306-2.75-9.188-6.29-26.565-8.06-38.949-7.66-56.128-15.32-91.482-28.49-130.232-.48-1.43-.93-2.777-1.36-4.055l-.03-.099-.02-.056v-.009c-2.1-6.278-3.65-10.879-5.42-15.387-4.87-12.373-11.49-24.035-36.27-67.695l-.18-.315c-2.31-4.066-4.77-8.409-7.4-13.054-29.87-52.732-40.28-69.11-55.6-87.886-10.42-12.983-29.28-38.151-42.05-56.327-37.33-53.331-42.83-58.924-63.46-64.917-15.52-4.594-19.25-7.59-48.33-38.35-25.74-27.165-35.36-34.555-44.4-34.555-2.55 0-8.45 4.594-15.52 11.984-11.59 12.184-16.11 14.182-23.97 9.987-4.13-2.397-10.81.2-14.93 5.793-4.13 5.393-12.18 33.556-15.33 52.732-6.28 41.147-7.07 57.725-3.92 102.268 1.57 23.569 3.92 45.141 4.91 47.938 5.89 15.579-.4 34.954-11.2 34.954-6.29 0-15.72-9.987-18.27-19.774-7.47-28.563-54.817-26.366-74.267 3.396-3.93 5.992-9.824 12.583-12.967 14.181-5.485 3.187-5.501 3.593-6.28 22.996l-.007.174c-.59 16.379-2.358 26.566-10.217 55.928-10.609 39.15-16.503 54.929-37.525 99.671-10.609 22.771-18.271 35.355-33.203 55.728-28.094 37.951-52.653 76.701-55.993 88.686-3.929 13.183-6.287 17.976-14.145 26.765-7.663 8.789-9.627 16.579-7.859 30.76 1.768 14.981 11.199 30.161 23.38 37.951 9.037 5.593 11.002 5.992 28.487 5.992 17.486 0 20.236-.599 35.561-7.39 9.234-3.995 25.148-9.787 35.364-12.584 10.216-2.996 26.719-7.989 36.346-11.185 28.095-9.188 28.488-8.989 24.166 12.384-1.965 9.587-1.769 15.58 1.178 36.154 6.287 43.14 12.574 58.92 27.901 70.71 13.95 10.98 40.08 7.79 48.92-5.99 7.66-11.79 17.88-66.12 21.61-114.057 4.71-61.321 13.36-95.677 28.09-111.456 7.08-7.79 17.29-12.784 32.81-16.379 44.6-10.586 89.59-35.154 119.46-65.515 21.41-21.772 23.57-27.165 29.86-76.102 5.5-43.144 5.11-51.134-2.95-72.706-4.91-12.784-4.91-14.381-.39-14.381 9.63 0 45.78 35.354 54.42 53.331 4.52 9.388 5.5 14.581 6.29 33.357 1.77 38.55-5.5 83.691-17.29 107.66-7.66 15.181-21.61 35.155-31.44 44.343-16.3 15.58-25.73 18.776-74.85 25.767-10.41 1.598-22.99 4.594-27.7 6.991-10.02 4.993-18.47 5.193-31.24 1.198-5.31-1.598-9.43-2.397-9.43-1.997s5.5 3.795 12.18 7.39c29.67 15.979 54.23 50.934 71.91 101.869 11.2 31.757 12.77 44.147 12.77 93.477.12 41.77-1.66 59.62-5.4 84.51-2.09 13.91-4.65 38.66-8.17 50.12-.29.92-.57 1.85-.84 2.81-.41 1.15-.83 2.4-1.29 3.72l-.01.03c-7.94 22.99-24.22 70.18-49.51 79.76-5.66 2.14-31.05-1.65-35.42-3.5-20.74-8.74-2.76-76.48 7.68-106.43.07-.17.13-.35.19-.52 26.63-77.21 26.98-81.67 30.88-131.24.19-2.37.38-4.84.59-7.42 2.36-31.96.98-48.339-6.29-70.511-8.84-26.366-33.79-67.313-57.56-94.078-9.63-10.786-11-11.785-13.75-8.989-4.33 4.195-9.04 37.951-9.04 64.118 0 24.568 2.16 37.951 9.82 62.719 16.31 52.931 21.42 112.251 12.77 150.001-2.95 12.99-6.87 17.98-18.07 23.17-15.72 7-29.87 6.8-60.52-1.19-15.12-4-33.79-7.79-41.45-8.39-13.556-1.2-13.949-1.2-21.022 5.19-4.126 3.6-10.216 12.38-13.752 19.58-6.877 14.58-16.7 23.37-23.773 21.17-10.413-3.2-25.344-24.57-27.702-39.95-1.572-9.99 6.68-62.12 15.914-100.27 3.733-15.58 12.574-43.94 19.45-62.72 7.073-18.776 12.771-34.555 12.771-35.154 0-2.597-7.073 5.792-16.504 19.374-15.717 22.57-29.273 49.94-39.686 80.1-16.503 48.33-22.004 59.32-41.062 82.89-18.467 22.77-24.361 26.97-38.114 26.97-16.11 0-25.737-7.4-25.737-19.78 0-6.59 1.178-8.79 6.287-12.98l6.483-5-3.536-6.59c-1.965-3.59-9.038-14.38-15.914-23.77-14.146-19.37-22.201-25.56-52.457-38.95-33.989-14.98-35.757-15.98-45.58-24.76-11.395-10.39-41.062-48.342-47.742-61.325-6.483-13.183-10.412-28.164-11.788-47.939-1.768-20.573 1.768-30.76 13.753-42.145 11.395-10.586 26.916-17.777 69.549-32.159 46.17-15.579 56.779-20.373 76.033-33.157 27.702-18.376 53.635-48.337 72.693-83.691 4.911-9.188 14.145-32.159 20.432-51.334 6.484-19.175 16.7-49.137 22.79-66.714 9.627-28.163 11.003-33.357 10.413-44.143-.786-12.584-3.143-17.577-16.699-34.555-10.217-12.584-8.056-42.345 3.929-53.731 2.357-2.397 15.717-8.389 29.47-13.183 13.753-4.993 27.505-10.386 30.649-12.184 8.055-4.195 12.574-12.584 22.986-42.945 4.912-14.78 15.526-40.547 23.376-56.926l.91-1.904 1.4-2.928c9.49-19.936 12.8-26.876 14.61-34.198.97-3.911 1.52-7.93 2.35-14.096l.14-1.023.13-.943.11-.836c1.38-9.987 3.73-20.773 5.11-24.169 2.16-5.593 1.96-7.59-1.97-16.578-3.34-7.99-4.51-15.78-5.5-35.754M683.892 926.937c5.501 4.195 10.02 17.178 8.055 22.571-.786 1.998 0 3.596 1.965 4.394 5.697 2.198 3.34 14.781-2.751 14.781-3.536 0-15.717-12.184-19.254-19.375-2.75-5.592-4.715-18.176-3.34-22.57 1.572-5.194 8.841-5.194 15.325.199" clip-rule="evenodd"/><path fill="#ffebec" d="M1233.8 370.456c20.63 5.993 26.13 11.586 63.46 64.917 12.77 18.176 31.63 43.344 42.05 56.327 15.32 18.776 25.73 35.154 55.6 87.886 2.63 4.645 5.09 8.988 7.4 13.054l.18.315c24.78 43.66 31.4 55.322 36.27 67.695 1.77 4.508 3.32 9.109 5.42 15.387v.009l.02.056.03.099c.43 1.278.88 2.625 1.36 4.055 13.17 38.75 20.83 74.104 28.49 130.232 1.77 12.384 5.31 29.761 8.06 38.949 10.02 33.957 12.77 47.14 15.52 73.306 4.32 39.748 10.61 83.297 13.95 96.877 8.05 32.76 55.2 159.39 63.26 170.78 3.17 4.37 7.42 7.92 11.78 10.37-31.79-12.69-96.62-19.72-175.75-33.14-80.21-13.61-147.99-14.04-170.51-12.57 3.74-24.89 5.52-42.74 5.4-84.51 0-49.33-1.57-61.72-12.77-93.477-17.68-50.935-42.24-85.89-71.91-101.869-6.68-3.595-12.18-6.991-12.18-7.39 0-.4 4.12.399 9.43 1.997 12.77 3.995 21.22 3.795 31.24-1.198 4.71-2.397 17.29-5.393 27.7-6.991 49.12-6.991 58.55-10.187 74.85-25.767 9.83-9.188 23.78-29.162 31.44-44.343 11.79-23.969 19.06-69.11 17.29-107.66-.79-18.776-1.77-23.969-6.29-33.357-8.64-17.977-44.79-53.331-54.42-53.331-4.52 0-4.52 1.597.39 14.381 8.06 21.572 8.45 29.562 2.95 72.706-6.29 48.937-8.45 54.33-29.86 76.102-29.87 30.361-74.86 54.929-119.46 65.515-15.52 3.595-25.73 8.589-32.81 16.379-14.73 15.779-23.38 50.135-28.09 111.456-3.73 47.937-13.95 102.267-21.61 114.057-8.84 13.78-34.97 16.97-48.92 5.99-15.327-11.79-21.614-27.57-27.901-70.71-2.947-20.574-3.143-26.567-1.178-36.154 4.322-21.373 3.929-21.572-24.166-12.384-9.627 3.196-26.13 8.189-36.346 11.185-10.216 2.797-26.13 8.589-35.364 12.584-15.325 6.791-18.075 7.39-35.561 7.39-17.485 0-19.45-.399-28.487-5.992-12.181-7.79-21.612-22.97-23.38-37.951-1.768-14.181.196-21.971 7.859-30.76 7.858-8.789 10.216-13.582 14.145-26.765 3.34-11.985 27.899-50.735 55.993-88.686 14.932-20.373 22.594-32.957 33.203-55.728 21.022-44.742 26.916-60.521 37.525-99.671 7.859-29.362 9.627-39.549 10.217-55.928l.007-.174c.779-19.403.795-19.809 6.28-22.996 3.143-1.598 9.037-8.189 12.967-14.181 19.45-29.762 66.797-31.959 74.267-3.396 2.55 9.787 11.98 19.774 18.27 19.774 10.8 0 17.09-19.375 11.2-34.954-.99-2.797-3.34-24.369-4.91-47.938-3.15-44.543-2.36-61.121 3.92-102.268 3.15-19.176 11.2-47.339 15.33-52.732 4.12-5.593 10.8-8.19 14.93-5.793 7.86 4.195 12.38 2.197 23.97-9.987 7.07-7.39 12.97-11.984 15.52-11.984 9.04 0 18.66 7.39 44.4 34.555 29.08 30.76 32.81 33.756 48.33 38.35M693.912 953.902c5.697 2.198 3.34 14.781-2.751 14.781-3.536 0-15.717-12.184-19.254-19.375-2.75-5.592-4.715-18.176-3.34-22.57 1.572-5.194 8.841-5.194 15.325.199 5.501 4.195 10.02 17.178 8.055 22.571-.786 1.998 0 3.596 1.965 4.394"/><path fill="#313c72" d="M999.813 529.451c-9.627 2.996-21.218 10.986-25.148 17.178-1.768 3.196-5.501 7.99-8.055 10.986-4.715 5.193-4.715 5.193-.786 7.39 2.358 1.199 6.091 2.197 8.645 2.197s8.055 1.998 12.377 4.395c15.524 8.589 42.634 3.595 51.084-9.588 3.93-6.192 4.32-15.38.98-21.772-4.91-9.588-25.15-15.18-39.097-10.786m25.347 18.177c12.57 7.39 12.18 12.583-1.77 17.377-9.43 3.196-13.36 2.796-17.88-1.798-5.697-5.792-5.11-13.183 1.57-16.778 7.27-3.995 9.24-3.995 18.08 1.199m-31.437 10.586c1.375 1.798 1.964 3.595 1.375 4.194-1.375 1.598-9.234-2.796-9.234-5.193 0-2.996 5.108-2.397 7.859.999"/><path fill="#313c72" d="M1006.3 552.022c-1.57 4.194 2.94 11.585 6.48 10.786 4.32-.799 7.47-6.392 5.9-10.387-1.58-3.995-11.01-4.194-12.38-.399M1035.57 568.201c-5.51 4.993-12.38 9.787-15.33 10.986-6.68 2.596-22.003 2.596-38.113 0-6.876-1.199-12.967-1.598-13.556-.999-.786.599.393 7.191 2.161 14.581 3.733 14.981 4.322 34.356 1.375 50.535-5.894 32.957-42.24 107.861-84.088 173.975-16.307 25.967-29.863 48.138-29.863 49.336 0 11.586 28.881-20.972 59.726-67.512 21.415-32.159 31.238-49.337 46.366-80.896 10.413-22.171 29.863-58.125 43.222-80.096 32.81-53.931 45.38-78.898 39.69-78.898-.79 0-5.9 3.994-11.59 8.988"/><path fill="#25986a" d="M777.5 1170.66c-220.423 0-424.833 63.67-499.5 93.5 0 0 332-72.92 499.5-62 .392-8.31 0-31.5 0-31.5M1681 1250.16c-67.67-24-247.4-73.5-425-79.5l3.5 32c153 0 304.5 32.84 421.5 47.5"/><path fill="#313c72" d="M302.145 1354.17h-28.111V1384h-8.674v-67.54h41.47v7.33h-32.796v23.1h28.111zm52.37-21.29q2.365 0 4.917.33c1.732.21 3.031.51 3.897.88l-1.16 8.39a41 41 0 0 0-4.778-.78 37 37 0 0 0-4.685-.28c-2.103 0-4.005.26-5.706.79q-2.55.735-4.453 2.22a13.6 13.6 0 0 0-3.015 3.2c-.835 1.24-1.531 2.63-2.087 4.18V1384h-8.628v-50.19h8.164l.371 6.73.046 1.25c2.041-2.75 4.484-4.92 7.33-6.5 2.876-1.6 6.138-2.41 9.787-2.41m25.513.93h25.652v42.77h16.374v7.42h-42.026v-7.42h17.07v-35.3h-17.07zm15.957-13.17c0-.75.108-1.44.325-2.09.247-.65.618-1.21 1.113-1.67q.603-.6 1.531-.93c.649-.25 1.376-.37 2.18-.37s1.515.12 2.134.37q.927.33 1.53.93.742.645 1.114 1.62c.247.65.371 1.36.371 2.14 0 1.39-.433 2.55-1.299 3.47-.866.93-2.149 1.4-3.85 1.4-1.732 0-3.031-.47-3.897-1.4-.835-.92-1.252-2.08-1.252-3.47m61.926 64.29c-3.525 0-6.772-.61-9.741-1.81-2.938-1.21-5.458-2.89-7.561-5.06-2.103-2.16-3.742-4.73-4.917-7.7q-1.763-4.455-1.763-9.69v-1.95q0-6.075 1.948-10.86 1.949-4.815 5.196-8.16c2.134-2.19 4.561-3.88 7.282-5.06 2.753-1.17 5.567-1.76 8.443-1.76 3.618 0 6.772.64 9.463 1.9 2.721 1.24 4.979 2.96 6.772 5.15 1.794 2.23 3.124 4.84 3.989 7.84.897 3 1.346 6.25 1.346 9.74v3.85h-35.857v.33q.325 3.66 1.438 6.45a16.3 16.3 0 0 0 3.154 4.91q2.041 2.28 4.917 3.57c1.917.87 4.036 1.3 6.355 1.3 3.062 0 5.783-.62 8.164-1.85q3.571-1.86 5.938-4.92l5.241 4.08q-2.505 3.81-7.514 6.78c-3.309 1.94-7.407 2.92-12.293 2.92m-1.113-45c-1.732 0-3.371.33-4.917.98a12.8 12.8 0 0 0-4.175 2.73c-1.237 1.24-2.288 2.76-3.154 4.55q-1.253 2.64-1.763 6.12h26.997v-.41c0-1.55-.294-3.21-.881-4.97-.588-1.79-1.407-3.34-2.459-4.64q-1.577-1.95-3.989-3.15c-1.577-.81-3.464-1.21-5.659-1.21m35.996 44.07v-50.19h7.7l.603 7.42a21.6 21.6 0 0 1 2.412-2.87c.897-.9 1.84-1.67 2.83-2.32a18.3 18.3 0 0 1 4.824-2.28 19.6 19.6 0 0 1 5.566-.88c2.629 0 5.01.37 7.144 1.12 2.165.74 4.005 1.9 5.52 3.47q2.273 2.37 3.479 6.03c.835 2.42 1.253 5.29 1.253 8.63V1384h-8.582v-31.68c0-2.23-.247-4.12-.742-5.66-.495-1.55-1.222-2.8-2.18-3.76-.99-.96-2.196-1.65-3.619-2.09-1.391-.43-2.999-.65-4.824-.65-1.577 0-3.046.24-4.407.7-1.36.43-2.613 1.04-3.757 1.81q-1.392 1.02-2.597 2.37c-.774.89-1.454 1.88-2.042 2.96v36zm55.432-25.51c0-3.74.464-7.18 1.392-10.3.958-3.15 2.319-5.86 4.082-8.12 1.731-2.26 3.834-4.02 6.308-5.29 2.474-1.26 5.242-1.9 8.304-1.9q4.499 0 7.839 1.53c2.257.99 4.206 2.45 5.845 4.36v-26.02h8.581V1384h-7.886l-.371-5.29c-1.67 2.04-3.664 3.59-5.984 4.64s-5.025 1.58-8.117 1.58q-4.546 0-8.257-1.95c-2.443-1.3-4.531-3.09-6.262-5.38q-2.598-3.435-4.036-8.07c-.959-3.13-1.438-6.48-1.438-10.07zm8.582.97q0 3.66.788 6.96c.526 2.2 1.345 4.13 2.459 5.8q1.624 2.505 4.174 3.99 2.551 1.44 6.124 1.44 4.314 0 7.143-1.95c1.886-1.3 3.386-3.05 4.5-5.24v-23.29a14.34 14.34 0 0 0-4.5-5.01c-1.886-1.33-4.237-2-7.051-2-2.412 0-4.484.5-6.216 1.49q-2.55 1.485-4.174 3.99c-1.114 1.7-1.933 3.66-2.459 5.89q-.788 3.285-.788 6.96zm83.449 11.23c0-1.02-.201-1.94-.603-2.74-.402-.83-1.082-1.59-2.041-2.27q-1.437-1.02-3.803-1.86c-1.578-.59-3.541-1.11-5.892-1.58q-4.314-.87-7.885-2.13c-2.351-.83-4.361-1.84-6.031-3.01-1.7-1.15-3.015-2.49-3.942-4.04-.928-1.58-1.392-3.4-1.392-5.47 0-2.04.479-3.95 1.438-5.71q1.438-2.685 4.036-4.68c1.731-1.33 3.788-2.39 6.169-3.16 2.412-.77 5.056-1.16 7.932-1.16 3.093 0 5.876.4 8.35 1.21 2.474.8 4.577 1.92 6.308 3.34q2.598 2.13 3.99 5.01 1.438 2.82 1.438 6.12h-8.582q0-1.62-.835-3.15c-.557-1.06-1.33-1.98-2.319-2.79q-1.485-1.2-3.618-1.95c-1.392-.49-2.969-.74-4.732-.74-1.824 0-3.432.2-4.824.61q-2.041.6-3.386 1.62c-.928.68-1.624 1.47-2.088 2.36q-.696 1.35-.695 2.79 0 1.485.556 2.64c.371.78 1.021 1.47 1.948 2.09.897.62 2.103 1.17 3.619 1.67q2.319.735 5.844 1.44c3.093.65 5.86 1.4 8.304 2.27 2.443.84 4.499 1.84 6.169 3.02q2.505 1.8 3.804 4.17c.896 1.58 1.345 3.4 1.345 5.47 0 2.23-.51 4.26-1.531 6.08-.989 1.83-2.381 3.39-4.175 4.69-1.793 1.29-3.943 2.3-6.447 3.01s-5.242 1.07-8.211 1.07q-5.103 0-9.092-1.35-3.988-1.395-6.726-3.66c-1.855-1.49-3.278-3.22-4.267-5.2-.959-1.98-1.438-4.03-1.438-6.17h8.581c.124 1.77.588 3.25 1.392 4.46.835 1.2 1.871 2.18 3.108 2.92 1.206.74 2.551 1.27 4.035 1.58 1.485.31 2.954.46 4.407.46 2.289 0 4.283-.26 5.984-.79 1.701-.56 3.031-1.31 3.989-2.27a6.3 6.3 0 0 0 1.345-1.95c.31-.71.464-1.47.464-2.27M752.098 1357.98h-35.486v-7.05h35.486zM860.145 1354.17h-28.111V1384h-8.674v-67.54h41.47v7.33h-32.796v23.1h28.111zm17.07 4.27c0-3.62.526-6.97 1.577-10.06 1.051-3.13 2.567-5.83 4.546-8.12 1.948-2.29 4.329-4.08 7.143-5.38 2.815-1.33 5.984-2 9.51-2 3.556 0 6.741.67 9.555 2 2.845 1.3 5.258 3.09 7.237 5.38 1.948 2.29 3.448 4.99 4.499 8.12 1.052 3.09 1.577 6.44 1.577 10.06v1.02c0 3.62-.525 6.97-1.577 10.07q-1.577 4.635-4.499 8.07c-1.979 2.29-4.376 4.08-7.19 5.38q-4.221 1.95-9.51 1.95-5.334 0-9.602-1.95c-2.814-1.3-5.195-3.09-7.143-5.38q-2.969-3.435-4.546-8.07c-1.051-3.1-1.577-6.45-1.577-10.07zm8.581 1.02c0 2.48.294 4.84.882 7.1.587 2.23 1.484 4.19 2.69 5.89 1.175 1.7 2.66 3.05 4.453 4.04 1.794.98 3.881 1.48 6.262 1.48 2.351 0 4.407-.5 6.17-1.48a13.4 13.4 0 0 0 4.499-4.04c1.176-1.7 2.057-3.66 2.644-5.89.588-2.26.882-4.62.882-7.1v-1.02c0-2.44-.309-4.78-.928-7q-.881-3.39-2.644-5.94a13.4 13.4 0 0 0-4.499-4.04q-2.644-1.53-6.216-1.53t-6.216 1.53c-1.763.99-3.232 2.34-4.407 4.04q-1.81 2.55-2.69 5.94c-.588 2.22-.882 4.56-.882 7zm83.775-26.58q2.365 0 4.917.33c1.732.21 3.03.51 3.896.88l-1.159 8.39a41 41 0 0 0-4.778-.78 37 37 0 0 0-4.685-.28c-2.103 0-4.005.26-5.706.79q-2.551.735-4.453 2.22a13.6 13.6 0 0 0-3.015 3.2c-.835 1.24-1.531 2.63-2.088 4.18V1384h-8.627v-50.19h8.164l.371 6.73.046 1.25c2.041-2.75 4.484-4.92 7.329-6.5 2.876-1.6 6.139-2.41 9.788-2.41m57.149 51.12c-.34-.65-.62-1.45-.84-2.41-.18-.99-.32-2.01-.41-3.06-.87.86-1.84 1.68-2.93 2.45a20 20 0 0 1-3.47 2.05c-1.3.58-2.68 1.05-4.13 1.39-1.46.34-3 .51-4.64.51-2.66 0-5.07-.39-7.24-1.16-2.13-.78-3.941-1.83-5.425-3.16a13.6 13.6 0 0 1-3.526-4.63c-.804-1.83-1.206-3.79-1.206-5.9q0-4.125 1.624-7.23c1.113-2.07 2.675-3.81 4.685-5.2 2.008-1.36 4.418-2.38 7.238-3.06q4.26-1.02 9.51-1.02h9.37v-3.94q0-2.28-.84-4.08a8.8 8.8 0 0 0-2.36-3.11c-1.02-.84-2.28-1.49-3.76-1.95-1.45-.46-3.09-.7-4.92-.7-1.7 0-3.23.22-4.59.65-1.33.44-2.46 1.01-3.39 1.72-.92.71-1.65 1.56-2.18 2.55-.49.96-.74 1.96-.74 3.02h-8.626c.031-1.83.495-3.62 1.391-5.39q1.392-2.64 3.99-4.77 2.556-2.085 6.215-3.39c2.47-.87 5.27-1.3 8.4-1.3 2.84 0 5.49.36 7.93 1.07 2.44.68 4.56 1.72 6.35 3.11 1.77 1.42 3.16 3.18 4.18 5.28q1.53 3.165 1.53 7.38v23.33c0 1.67.15 3.45.46 5.34.31 1.85.75 3.48 1.3 4.87v.74zm-15.17-6.54c1.67 0 3.23-.22 4.69-.65 1.45-.43 2.78-1 3.99-1.72 1.17-.71 2.19-1.51 3.06-2.41.86-.93 1.54-1.88 2.04-2.87v-10.16h-7.98c-2.97 0-5.57.26-7.79.79q-3.3.735-5.25 2.31c-.92.75-1.63 1.63-2.13 2.65-.46 1.02-.7 2.18-.7 3.48 0 1.23.21 2.38.61 3.43a7.1 7.1 0 0 0 1.9 2.69c.83.77 1.89 1.38 3.15 1.81 1.27.43 2.74.65 4.41.65m37.67-18.97c0-3.74.45-7.18 1.34-10.3.93-3.15 2.26-5.86 3.99-8.12s3.84-4.02 6.31-5.29c2.47-1.26 5.27-1.9 8.4-1.9 2.01 0 3.85.23 5.52.7q2.55.69 4.59 2.04c.74.46 1.44 1 2.09 1.62.68.62 1.31 1.3 1.9 2.04l.41-5.47h7.8v49.12c0 3.31-.53 6.25-1.58 8.82-1.02 2.56-2.46 4.74-4.31 6.54-1.89 1.79-4.13 3.15-6.73 4.08s-5.47 1.39-8.63 1.39c-1.3 0-2.78-.15-4.45-.46-1.67-.28-3.36-.76-5.06-1.44a22.8 22.8 0 0 1-5.01-2.65 16.8 16.8 0 0 1-4.08-4.12l4.45-5.15c1.06 1.27 2.14 2.33 3.25 3.2 1.12.89 2.24 1.61 3.39 2.13 1.14.53 2.29.9 3.43 1.12 1.14.24 2.29.37 3.43.37 2.04 0 3.88-.3 5.52-.88 1.64-.59 3.05-1.46 4.22-2.6 1.15-1.12 2.03-2.51 2.65-4.18s.93-3.58.93-5.75v-4.31c-.65.74-1.35 1.42-2.09 2.04-.71.62-1.49 1.16-2.32 1.62-1.3.71-2.74 1.25-4.31 1.62-1.58.41-3.28.61-5.11.61-3.06 0-5.83-.65-8.3-1.95s-4.56-3.09-6.26-5.38q-2.595-3.435-3.99-8.07c-.93-3.13-1.39-6.48-1.39-10.07zm8.58.97c0 2.44.25 4.76.74 6.96.53 2.2 1.35 4.13 2.46 5.8q1.62 2.505 4.17 3.99c1.7.96 3.75 1.44 6.13 1.44 1.48 0 2.81-.18 3.99-.52q1.8-.555 3.24-1.53c.93-.65 1.77-1.42 2.51-2.32.74-.89 1.39-1.88 1.95-2.96v-23.01q-.84-1.575-1.95-2.88c-.74-.86-1.59-1.62-2.55-2.27-.96-.62-2.03-1.1-3.2-1.44-1.18-.37-2.48-.56-3.9-.56-2.41 0-4.48.5-6.22 1.49q-2.55 1.485-4.17 3.99c-1.11 1.7-1.93 3.66-2.46 5.89-.49 2.19-.74 4.51-.74 6.96zm72.22 25.47c-3.52 0-6.77-.61-9.74-1.81-2.94-1.21-5.46-2.89-7.56-5.06-2.1-2.16-3.74-4.73-4.92-7.7-1.17-2.97-1.76-6.2-1.76-9.69v-1.95q0-6.075 1.95-10.86 1.95-4.815 5.19-8.16c2.14-2.19 4.57-3.88 7.29-5.06 2.75-1.17 5.56-1.76 8.44-1.76 3.62 0 6.77.64 9.46 1.9 2.72 1.24 4.98 2.96 6.77 5.15 1.8 2.23 3.13 4.84 3.99 7.84.9 3 1.35 6.25 1.35 9.74v3.85h-35.86v.33q.33 3.66 1.44 6.45c.77 1.85 1.82 3.49 3.15 4.91 1.37 1.52 3 2.71 4.92 3.57 1.92.87 4.04 1.3 6.36 1.3 3.06 0 5.78-.62 8.16-1.85q3.57-1.86 5.94-4.92l5.24 4.08c-1.67 2.54-4.18 4.8-7.52 6.78-3.3 1.94-7.4 2.92-12.29 2.92m-1.11-45c-1.73 0-3.37.33-4.92.98-1.54.62-2.94 1.53-4.17 2.73-1.24 1.24-2.29 2.76-3.16 4.55-.83 1.76-1.42 3.8-1.76 6.12h27v-.41c0-1.55-.3-3.21-.88-4.97-.59-1.79-1.41-3.34-2.46-4.64q-1.575-1.95-3.99-3.15c-1.58-.81-3.47-1.21-5.66-1.21M1253.1 1357.98h-35.49v-7.05h35.49zM1361.14 1354.17h-28.11V1384h-8.67v-67.54h41.47v7.33h-32.8v23.1h28.11zm52.38-21.29c1.57 0 3.21.11 4.91.33 1.73.21 3.03.51 3.9.88l-1.16 8.39c-1.67-.37-3.26-.63-4.78-.78-1.48-.19-3.04-.28-4.68-.28-2.11 0-4.01.26-5.71.79-1.7.49-3.18 1.23-4.45 2.22-1.15.87-2.15 1.93-3.02 3.2-.83 1.24-1.53 2.63-2.09 4.18V1384h-8.62v-50.19h8.16l.37 6.73.05 1.25c2.04-2.75 4.48-4.92 7.33-6.5 2.87-1.6 6.14-2.41 9.79-2.41m46.34 52.05c-3.53 0-6.78-.61-9.75-1.81-2.93-1.21-5.45-2.89-7.56-5.06-2.1-2.16-3.74-4.73-4.91-7.7q-1.77-4.455-1.77-9.69v-1.95q0-6.075 1.95-10.86c1.3-3.21 3.03-5.93 5.2-8.16 2.13-2.19 4.56-3.88 7.28-5.06 2.75-1.17 5.57-1.76 8.44-1.76 3.62 0 6.77.64 9.47 1.9 2.72 1.24 4.97 2.96 6.77 5.15 1.79 2.23 3.12 4.84 3.99 7.84.89 3 1.34 6.25 1.34 9.74v3.85h-35.85v.33c.21 2.44.69 4.59 1.43 6.45.78 1.85 1.83 3.49 3.16 4.91 1.36 1.52 3 2.71 4.91 3.57 1.92.87 4.04 1.3 6.36 1.3 3.06 0 5.78-.62 8.16-1.85q3.57-1.86 5.94-4.92l5.24 4.08c-1.67 2.54-4.17 4.8-7.51 6.78-3.31 1.94-7.41 2.92-12.29 2.92m-1.12-45c-1.73 0-3.37.33-4.91.98-1.55.62-2.94 1.53-4.18 2.73-1.24 1.24-2.29 2.76-3.15 4.55q-1.26 2.64-1.77 6.12h27v-.41c0-1.55-.29-3.21-.88-4.97-.59-1.79-1.41-3.34-2.46-4.64q-1.575-1.95-3.99-3.15c-1.58-.81-3.46-1.21-5.66-1.21m58.17 45c-3.52 0-6.77-.61-9.74-1.81-2.94-1.21-5.46-2.89-7.56-5.06-2.1-2.16-3.74-4.73-4.92-7.7-1.17-2.97-1.76-6.2-1.76-9.69v-1.95q0-6.075 1.95-10.86 1.95-4.815 5.19-8.16c2.14-2.19 4.56-3.88 7.29-5.06 2.75-1.17 5.56-1.76 8.44-1.76 3.62 0 6.77.64 9.46 1.9 2.72 1.24 4.98 2.96 6.77 5.15 1.8 2.23 3.13 4.84 3.99 7.84.9 3 1.35 6.25 1.35 9.74v3.85h-35.86v.33q.33 3.66 1.44 6.45c.77 1.85 1.82 3.49 3.15 4.91q2.04 2.28 4.92 3.57c1.92.87 4.04 1.3 6.36 1.3 3.06 0 5.78-.62 8.16-1.85q3.57-1.86 5.94-4.92l5.24 4.08c-1.67 2.54-4.18 4.8-7.52 6.78-3.31 1.94-7.4 2.92-12.29 2.92m-1.11-45c-1.73 0-3.37.33-4.92.98a12.7 12.7 0 0 0-4.17 2.73c-1.24 1.24-2.29 2.76-3.16 4.55-.83 1.76-1.42 3.8-1.76 6.12h27v-.41c0-1.55-.3-3.21-.89-4.97-.58-1.79-1.4-3.34-2.45-4.64-1.06-1.3-2.38-2.35-3.99-3.15-1.58-.81-3.47-1.21-5.66-1.21m34.37 18.56c0-3.74.46-7.18 1.39-10.3.96-3.15 2.32-5.86 4.08-8.12 1.74-2.26 3.84-4.02 6.31-5.29 2.48-1.26 5.24-1.9 8.31-1.9 3 0 5.61.51 7.84 1.53 2.25.99 4.2 2.45 5.84 4.36v-26.02h8.58V1384h-7.88l-.38-5.29c-1.67 2.04-3.66 3.59-5.98 4.64s-5.02 1.58-8.12 1.58q-4.545 0-8.25-1.95c-2.45-1.3-4.53-3.09-6.27-5.38-1.73-2.29-3.07-4.98-4.03-8.07-.96-3.13-1.44-6.48-1.44-10.07zm8.58.97c0 2.44.26 4.76.79 6.96s1.35 4.13 2.46 5.8q1.62 2.505 4.17 3.99c1.7.96 3.75 1.44 6.13 1.44q4.305 0 7.14-1.95c1.89-1.3 3.39-3.05 4.5-5.24v-23.29a14.3 14.3 0 0 0-4.5-5.01c-1.89-1.33-4.24-2-7.05-2-2.41 0-4.48.5-6.22 1.49q-2.55 1.485-4.17 3.99c-1.11 1.7-1.93 3.66-2.46 5.89-.53 2.19-.79 4.51-.79 6.96zm47.69-1.02c0-3.62.52-6.97 1.57-10.06 1.06-3.13 2.57-5.83 4.55-8.12 1.95-2.29 4.33-4.08 7.14-5.38 2.82-1.33 5.99-2 9.51-2 3.56 0 6.74.67 9.56 2 2.84 1.3 5.26 3.09 7.24 5.38 1.94 2.29 3.44 4.99 4.49 8.12 1.06 3.09 1.58 6.44 1.58 10.06v1.02c0 3.62-.52 6.97-1.58 10.07-1.05 3.09-2.55 5.78-4.49 8.07-1.98 2.29-4.38 4.08-7.19 5.38q-4.23 1.95-9.51 1.95c-3.56 0-6.76-.65-9.61-1.95-2.81-1.3-5.19-3.09-7.14-5.38-1.98-2.29-3.49-4.98-4.55-8.07-1.05-3.1-1.57-6.45-1.57-10.07zm8.58 1.02c0 2.48.29 4.84.88 7.1.59 2.23 1.48 4.19 2.69 5.89 1.18 1.7 2.66 3.05 4.45 4.04 1.8.98 3.88 1.48 6.27 1.48 2.35 0 4.4-.5 6.17-1.48 1.79-.99 3.29-2.34 4.5-4.04 1.17-1.7 2.05-3.66 2.64-5.89.59-2.26.88-4.62.88-7.1v-1.02c0-2.44-.31-4.78-.93-7-.58-2.26-1.47-4.24-2.64-5.94-1.21-1.7-2.71-3.05-4.5-4.04-1.76-1.02-3.84-1.53-6.22-1.53q-3.57 0-6.21 1.53c-1.77.99-3.23 2.34-4.41 4.04-1.21 1.7-2.1 3.68-2.69 5.94-.59 2.22-.88 4.56-.88 7zm54.83-25.65.23 4.73c1.02-1.76 2.35-3.14 3.99-4.13q2.505-1.485 6.03-1.53c1.33 0 2.52.16 3.57.47 1.08.27 2.03.69 2.83 1.25.59.43 1.11.96 1.58 1.58.49.61.91 1.31 1.25 2.08.43-.71.94-1.37 1.53-1.99s1.22-1.16 1.9-1.63c.87-.52 1.83-.94 2.88-1.25 1.08-.31 2.26-.48 3.52-.51 1.74 0 3.3.26 4.69.79 1.39.5 2.57 1.24 3.53 2.23 1.05 1.11 1.85 2.56 2.41 4.36.55 1.76.83 3.85.83 6.26V1384h-8.16v-37.57c0-1.05-.13-1.98-.37-2.79-.25-.8-.61-1.47-1.07-1.99q-.735-.75-1.86-1.11c-.71-.25-1.54-.38-2.5-.38q-1.53 0-2.64.42c-.75.28-1.37.65-1.86 1.12-.49.49-.88 1.06-1.16 1.71-.28.62-.46 1.32-.56 2.09v38.5h-8.16v-37.62c0-1.05-.12-1.98-.37-2.78-.22-.81-.57-1.47-1.07-2-.46-.49-1.05-.85-1.76-1.06-.68-.25-1.49-.38-2.41-.38-1.02 0-1.92.13-2.69.38-.75.21-1.38.54-1.91.97-.4.34-.75.73-1.06 1.16-.28.43-.51.9-.7 1.39V1384h-8.16v-50.19zM405.575 1661.83h-42.339v29.1h49.49V1707h-69.455v-103.09h69.243v16.22h-49.278v25.98h42.339zm-22.302-83.26h21.665l-19.612 19.75h-15.293zm117.529 96.14c-.33 5.2-1.463 9.87-3.398 14.02q-2.832 6.24-7.647 10.62c-3.209 2.93-7.033 5.2-11.469 6.8q-6.656 2.34-14.727 2.34c-4.248 0-8.189-.55-11.824-1.63-3.587-1.13-6.82-2.74-9.699-4.82-2.644-1.93-5.004-4.27-7.08-7.01q-3.045-4.095-5.169-9.06c-1.369-3.3-2.431-6.94-3.186-10.9q-1.062-5.955-1.062-12.6v-13.88c0-4.15.33-8.1.991-11.82.661-3.78 1.652-7.27 2.974-10.48 1.51-3.92 3.493-7.41 5.947-10.48s5.239-5.67 8.355-7.79q4.176-2.685 9.133-4.11c3.351-.99 6.938-1.48 10.762-1.48q8.496 0 15.08 2.4 6.656 2.415 11.328 6.87c3.116 2.98 5.57 6.61 7.364 10.91 1.793 4.29 2.926 9.13 3.398 14.51h-19.824q-.284-4.605-1.416-8.07c-.708-2.31-1.747-4.25-3.115-5.81-1.416-1.51-3.186-2.64-5.31-3.4q-3.116-1.2-7.505-1.2c-1.558 0-3.021.17-4.39.5-1.322.33-2.549.82-3.682 1.48-1.935 1.14-3.587 2.76-4.956 4.89q-1.981 3.12-3.186 7.29c-.613 2.17-1.062 4.58-1.345 7.22q-.425 3.9-.425 8.43v14.02q0 6.15.637 11.04.708 4.815 2.124 8.43c.661 1.65 1.44 3.11 2.337 4.39q1.416 1.905 3.186 3.18c1.274.95 2.69 1.65 4.248 2.13q2.408.63 5.31.63 3.894 0 7.009-.99c2.077-.66 3.847-1.7 5.31-3.11 1.464-1.42 2.62-3.24 3.47-5.45q1.273-3.33 1.557-8.01zm84.182-70.8.071 68.33q0 8.64-2.407 15.36c-1.558 4.48-3.823 8.26-6.797 11.33q-4.531 4.665-11.045 7.08c-4.295 1.6-9.204 2.41-14.726 2.41-5.192 0-9.889-.81-14.09-2.41-4.153-1.61-7.717-3.94-10.691-7.01-2.973-3.07-5.286-6.84-6.938-11.33-1.605-4.53-2.407-9.67-2.407-15.43l.07-68.33h19.895l.071 68.33q.071 5.16.991 9.06c.661 2.6 1.629 4.74 2.903 6.44q1.77 2.34 4.319 3.54 2.548 1.14 5.877 1.14c2.407 0 4.531-.41 6.372-1.21q2.832-1.275 4.673-3.75c1.321-1.7 2.312-3.82 2.973-6.37q.991-3.825 1.062-8.85l.071-68.33zm53.384 64.57h-15.08V1707h-19.895v-103.09h34.55c5.712 0 10.88.69 15.506 2.06 4.625 1.32 8.59 3.28 11.894 5.87 3.257 2.6 5.759 5.83 7.505 9.7 1.794 3.87 2.691 8.36 2.691 13.46 0 3.68-.449 7-1.346 9.98q-1.274 4.38-3.681 7.86a27.4 27.4 0 0 1-5.948 6.16q-3.398 2.61-7.646 4.53l22.161 42.55v.92h-21.311zm-15.08-16.14h14.726c3.068 0 5.759-.42 8.071-1.27 2.36-.9 4.272-2.17 5.735-3.83q1.841-1.98 2.762-4.74c.66-1.84.991-3.89.991-6.16 0-2.74-.425-5.14-1.275-7.22-.802-2.12-2.029-3.87-3.681-5.24-1.464-1.23-3.257-2.17-5.381-2.83q-3.186-.99-7.293-.99h-14.655zm71.579-48.43h59.614v16.08h-20.107V1691h20.107v16h-59.614v-16h19.612v-71.01h-19.612zM841 1661.83h-42.339v29.1h49.49V1707h-69.456v-103.09h69.243v16.22h-49.277v25.98H841zM951.308 1707v-103.09H978q7.15 0 13.381 1.77 6.23 1.71 11.329 4.89c2.97 1.75 5.62 3.89 7.93 6.44a45.5 45.5 0 0 1 6.16 8.22c2.03 3.63 3.59 7.64 4.67 12.03 1.13 4.39 1.7 9.06 1.7 14.02v8.5c0 4.76-.52 9.27-1.56 13.52s-2.5 8.14-4.39 11.68a50.2 50.2 0 0 1-6.3 8.78c-2.41 2.64-5.05 4.86-7.93 6.66-3.349 2.12-7.054 3.75-11.114 4.88-4.012 1.13-8.307 1.7-12.885 1.7zm20.036-86.94V1691h7.647c2.454 0 4.743-.31 6.867-.92s4.06-1.51 5.806-2.69c1.794-1.23 3.398-2.79 4.815-4.67 1.463-1.94 2.714-4.18 3.751-6.73.85-2.22 1.49-4.67 1.91-7.36.47-2.74.71-5.69.71-8.85v-8.64c0-2.98-.24-5.78-.71-8.43-.42-2.69-1.06-5.14-1.91-7.36q-1.556-3.96-4.105-7.08-2.48-3.12-5.806-5.1c-1.699-.99-3.587-1.74-5.664-2.26-2.03-.57-4.248-.85-6.655-.85zm136.146-16.15.07 68.33q0 8.64-2.4 15.36c-1.56 4.48-3.83 8.26-6.8 11.33q-4.53 4.665-11.04 7.08c-4.3 1.6-9.21 2.41-14.73 2.41-5.19 0-9.89-.81-14.09-2.41-4.15-1.61-7.72-3.94-10.69-7.01s-5.29-6.84-6.94-11.33c-1.6-4.53-2.41-9.67-2.41-15.43l.07-68.33h19.9l.07 68.33q.075 5.16.99 9.06c.66 2.6 1.63 4.74 2.9 6.44q1.77 2.34 4.32 3.54 2.55 1.14 5.88 1.14c2.41 0 4.53-.41 6.37-1.21 1.89-.85 3.45-2.1 4.67-3.75 1.33-1.7 2.32-3.82 2.98-6.37s1.01-5.5 1.06-8.85l.07-68.33zm170.92 60.4h-44.18V1707h-19.97v-103.09h69.67v16.22h-49.7v28.03h44.18zm56.64 4.17h-15.08V1707h-19.9v-103.09h34.55c5.71 0 10.88.69 15.51 2.06 4.62 1.32 8.59 3.28 11.89 5.87 3.26 2.6 5.76 5.83 7.51 9.7 1.79 3.87 2.69 8.36 2.69 13.46 0 3.68-.45 7-1.35 9.98-.85 2.92-2.07 5.54-3.68 7.86a27.2 27.2 0 0 1-5.95 6.16c-2.26 1.74-4.81 3.25-7.64 4.53l22.16 42.55v.92h-21.31zm-15.08-16.14h14.72c3.07 0 5.76-.42 8.08-1.27 2.36-.9 4.27-2.17 5.73-3.83q1.845-1.98 2.76-4.74c.66-1.84.99-3.89.99-6.16 0-2.74-.42-5.14-1.27-7.22-.8-2.12-2.03-3.87-3.68-5.24-1.47-1.23-3.26-2.17-5.38-2.83-2.13-.66-4.56-.99-7.3-.99h-14.65zm130.62 9.49h-42.33v29.1h49.49V1707h-69.46v-103.09h69.24v16.22h-49.27v25.98h42.33zm-.7-69.03v1.98h-15.65l-10.9-8.99-10.84 8.99h-15.36v-2.12l20.53-17.07h11.4zm92.32 114.2h-19.82l-28.68-66.48V1707h-20.03v-103.09h20.03l28.46 66.2.08-66.2h19.96zm82.55-45.17h-42.33v29.1h49.49V1707h-69.46v-103.09h69.24v16.22h-49.27v25.98h42.33zM623.117 1828v-67.54h20.085q4.175.045 8.164 1.11c2.66.68 5.025 1.75 7.097 3.2a16.3 16.3 0 0 1 4.964 5.57c1.237 2.26 1.84 4.96 1.809 8.12-.031 1.76-.325 3.37-.882 4.82a13.2 13.2 0 0 1-2.18 3.9 15.5 15.5 0 0 1-3.2 2.97c-1.145.8-2.536 1.56-4.175 2.27v.14c1.701.4 3.34 1.13 4.917 2.18q2.366 1.575 3.896 3.48a15.8 15.8 0 0 1 2.505 4.68c.619 1.74.928 3.61.928 5.62.031 3.15-.572 5.94-1.809 8.35q-1.856 3.615-4.964 6.03-3.107 2.46-7.189 3.75a28 28 0 0 1-8.35 1.35zm8.628-31.59v24.31h13.22c1.793-.03 3.494-.33 5.102-.88 1.608-.59 3.031-1.4 4.268-2.42a10.9 10.9 0 0 0 2.922-3.75c.743-1.49 1.114-3.17 1.114-5.06q.046-2.88-.975-5.1a10.94 10.94 0 0 0-2.736-3.81c-1.175-1.02-2.552-1.8-4.129-2.36q-2.366-.84-5.102-.93zm0-7.14h11.967q2.412-.045 4.732-.75 2.319-.735 4.128-2.13c1.206-.9 2.18-2.01 2.923-3.34s1.113-2.87 1.113-4.64c0-1.88-.371-3.49-1.113-4.82a9.6 9.6 0 0 0-2.876-3.3c-1.237-.83-2.66-1.45-4.268-1.85-1.577-.4-3.201-.62-4.871-.65h-11.735zm46.108 13.17c0-3.62.526-6.97 1.577-10.06 1.052-3.13 2.567-5.83 4.546-8.12 1.948-2.29 4.33-4.08 7.144-5.38 2.814-1.33 5.984-2 9.509-2 3.556 0 6.741.67 9.556 2 2.845 1.3 5.257 3.09 7.236 5.38 1.948 2.29 3.448 4.99 4.499 8.12 1.052 3.09 1.578 6.44 1.578 10.06v1.02c0 3.62-.526 6.97-1.578 10.07q-1.577 4.635-4.499 8.07c-1.979 2.29-4.376 4.08-7.19 5.38q-4.221 1.95-9.509 1.95-5.335 0-9.602-1.95c-2.814-1.3-5.196-3.09-7.144-5.38q-2.968-3.435-4.546-8.07c-1.051-3.1-1.577-6.45-1.577-10.07zm8.582 1.02c0 2.48.293 4.84.881 7.1.587 2.23 1.484 4.19 2.69 5.89 1.175 1.7 2.66 3.05 4.453 4.04 1.794.98 3.881 1.48 6.263 1.48 2.35 0 4.406-.5 6.169-1.48a13.4 13.4 0 0 0 4.5-4.04c1.175-1.7 2.056-3.66 2.644-5.89.587-2.26.881-4.62.881-7.1v-1.02c0-2.44-.309-4.78-.928-7q-.881-3.39-2.644-5.94a13.4 13.4 0 0 0-4.499-4.04q-2.645-1.53-6.216-1.53t-6.216 1.53c-1.763.99-3.232 2.34-4.407 4.04q-1.81 2.55-2.69 5.94c-.588 2.22-.881 4.56-.881 7zm52.231-25.65h25.652v42.77h16.374v7.42h-42.026v-7.42h17.07v-35.3h-17.07zm15.957-13.17c0-.75.108-1.44.325-2.09.247-.65.618-1.21 1.113-1.67q.603-.6 1.531-.93c.649-.25 1.376-.37 2.18-.37s1.515.12 2.134.37q.928.33 1.531.93.741.645 1.113 1.62c.247.65.371 1.36.371 2.14 0 1.39-.433 2.55-1.299 3.47-.866.93-2.149 1.4-3.85 1.4-1.732 0-3.031-.47-3.897-1.4-.834-.92-1.252-2.08-1.252-3.47m60.071 1.02v12.15h19.111v6.63h-19.111v27.28c0 1.95.247 3.55.742 4.82s1.175 2.28 2.041 3.02a7.4 7.4 0 0 0 2.969 1.62c1.144.31 2.35.47 3.618.47.928 0 1.886-.05 2.876-.14q1.485-.195 2.922-.42c.928-.16 1.794-.31 2.598-.47.835-.18 1.515-.34 2.041-.46l1.206 6.08c-.711.43-1.577.82-2.598 1.16-1.02.31-2.133.57-3.339.79-1.207.24-2.49.43-3.851.55-1.329.13-2.659.19-3.989.19q-3.34 0-6.262-.93a13.1 13.1 0 0 1-5.01-3.06c-1.422-1.36-2.551-3.12-3.386-5.29-.804-2.2-1.206-4.84-1.206-7.93v-27.28h-13.174v-6.63h13.174v-12.15zm69.626 11.22q2.365 0 4.917.33c1.732.21 3.031.51 3.897.88l-1.16 8.39q-2.504-.555-4.778-.78a37 37 0 0 0-4.685-.28c-2.103 0-4.004.26-5.705.79q-2.552.735-4.453 2.22c-1.145.87-2.15 1.93-3.016 3.2-.835 1.24-1.53 2.63-2.087 4.18V1828h-8.628v-50.19h8.164l.371 6.73.047 1.25c2.041-2.75 4.484-4.92 7.329-6.5 2.876-1.6 6.138-2.41 9.787-2.41m21.756 25.56c0-3.62.525-6.97 1.577-10.06 1.051-3.13 2.567-5.83 4.546-8.12 1.948-2.29 4.329-4.08 7.143-5.38 2.814-1.33 5.984-2 9.51-2 3.556 0 6.741.67 9.555 2 2.845 1.3 5.257 3.09 7.237 5.38 1.948 2.29 3.448 4.99 4.499 8.12 1.051 3.09 1.577 6.44 1.577 10.06v1.02c0 3.62-.526 6.97-1.577 10.07q-1.577 4.635-4.499 8.07c-1.98 2.29-4.376 4.08-7.19 5.38q-4.222 1.95-9.51 1.95-5.334 0-9.602-1.95c-2.814-1.3-5.195-3.09-7.143-5.38q-2.969-3.435-4.546-8.07c-1.052-3.1-1.577-6.45-1.577-10.07zm8.581 1.02c0 2.48.294 4.84.882 7.1.587 2.23 1.484 4.19 2.69 5.89 1.175 1.7 2.66 3.05 4.453 4.04 1.794.98 3.881 1.48 6.262 1.48 2.351 0 4.407-.5 6.17-1.48a13.4 13.4 0 0 0 4.499-4.04c1.175-1.7 2.057-3.66 2.644-5.89.588-2.26.882-4.62.882-7.1v-1.02c0-2.44-.31-4.78-.928-7q-.882-3.39-2.644-5.94a13.4 13.4 0 0 0-4.5-4.04q-2.643-1.53-6.215-1.53t-6.216 1.53c-1.763.99-3.232 2.34-4.407 4.04q-1.81 2.55-2.69 5.94c-.588 2.22-.882 4.56-.882 7zm50.886 24.54v-50.19h7.701l.603 7.42a21.6 21.6 0 0 1 2.412-2.87c.897-.9 1.84-1.67 2.829-2.32a18.3 18.3 0 0 1 4.825-2.28c1.762-.55 3.618-.85 5.566-.88 2.629 0 5.01.37 7.144 1.12 2.164.74 4.007 1.9 5.517 3.47q2.28 2.37 3.48 6.03c.84 2.42 1.25 5.29 1.25 8.63V1828h-8.578v-31.68c0-2.23-.247-4.12-.742-5.66-.494-1.55-1.221-2.8-2.18-3.76-.989-.96-2.196-1.65-3.618-2.09-1.392-.43-3-.65-4.824-.65-1.577 0-3.046.24-4.407.7a14.6 14.6 0 0 0-3.757 1.81q-1.392 1.02-2.598 2.37a16.6 16.6 0 0 0-2.041 2.96v36zm156.877-62.71-27.97 62.71h-9l27.88-60.02h-36.55v-7.52h45.64zm57.06 0-27.97 62.71h-9l27.88-60.02h-36.56v-7.52h45.65zm57.05 0-27.97 62.71h-9l27.88-60.02h-36.55v-7.52h45.64zm17.35 28.85 3.39-33.68h34.65v8.35h-27.41l-1.91 18c1.33-.77 2.93-1.45 4.78-2.04 1.86-.59 4.01-.88 6.45-.88q4.68 0 8.4 1.62c2.47 1.08 4.57 2.6 6.3 4.55 1.74 1.97 3.07 4.36 3.99 7.14.93 2.78 1.4 5.87 1.4 9.28 0 3.21-.44 6.2-1.3 8.95-.87 2.75-2.17 5.12-3.9 7.1-1.76 2.01-3.97 3.58-6.63 4.73-2.66 1.11-5.79 1.67-9.37 1.67-2.76 0-5.35-.39-7.8-1.16-2.44-.78-4.6-1.93-6.49-3.48-1.92-1.55-3.5-3.5-4.73-5.85-1.21-2.35-1.97-5.08-2.28-8.21h8.17c.52 3.84 1.93 6.75 4.22 8.72q3.48 2.97 8.91 2.97c2.04 0 3.85-.35 5.42-1.06 1.58-.75 2.91-1.8 3.99-3.16 1.05-1.33 1.84-2.94 2.37-4.82.56-1.89.83-3.99.83-6.31 0-2.1-.31-4.07-.92-5.89-.59-1.83-1.46-3.42-2.6-4.78-1.15-1.33-2.55-2.38-4.22-3.15-1.67-.78-3.59-1.16-5.76-1.16-1.42 0-2.65.1-3.71.32-1.02.19-1.94.47-2.78.84-.83.37-1.62.82-2.36 1.34-.72.53-1.46 1.13-2.23 1.81zm96.39 8.02c0 4.3-.49 8.12-1.48 11.46-.99 3.31-2.41 6.09-4.27 8.35a17.9 17.9 0 0 1-6.82 5.2c-2.69 1.17-5.76 1.76-9.23 1.76-3.43 0-6.51-.57-9.23-1.72-2.72-1.17-5.02-2.92-6.91-5.24-1.89-2.26-3.32-5.04-4.31-8.35-.99-3.34-1.49-7.16-1.49-11.46v-15.82c0-4.29.5-8.1 1.49-11.41.99-3.34 2.42-6.15 4.31-8.44 1.86-2.29 4.13-4.02 6.82-5.19 2.72-1.21 5.8-1.81 9.23-1.81 3.46 0 6.54.6 9.23 1.81 2.72 1.17 5.03 2.9 6.91 5.19 1.86 2.29 3.28 5.1 4.27 8.44.99 3.31 1.48 7.12 1.48 11.41zm-35.11-1.71 26.3-20.18c-.25-2.23-.69-4.19-1.34-5.89-.62-1.73-1.47-3.17-2.56-4.32-1.05-1.17-2.35-2.05-3.89-2.64-1.52-.59-3.28-.88-5.29-.88-2.04 0-3.85.32-5.43.97-1.54.62-2.86 1.53-3.94 2.74-1.3 1.51-2.27 3.48-2.92 5.89-.62 2.38-.93 5.15-.93 8.3v16.01m26.49 3.52v-15.49l-26.26 20.08c.28 2.26.78 4.26 1.49 5.99.71 1.7 1.64 3.11 2.78 4.22 1.05 1.05 2.32 1.85 3.8 2.41 1.49.53 3.16.79 5.01.79 1.95 0 3.68-.29 5.2-.88 1.51-.59 2.8-1.44 3.85-2.55 1.42-1.52 2.46-3.5 3.11-5.94.68-2.44 1.02-5.32 1.02-8.63"/></svg>